# xmcd
#
# Track frame offsets:
# 150
# 14656
# 33433
# 53064
# 72194
# 85737
# 106260
# 128617
# 143851
# 163272
# 181424
#
# Disc length: 2990 seconds
#
# Revision: 1
# Processed by: cddbd v1.5.2PL0 Copyright (c) Steve Scherf et al.
# Submitted via: CedeCatalogueitor 2.6.0.6 http://personales.ya.com/cdcatalogueitor
#
DISCID=910bac0b
DTITLE=Jet Lag - Forever
DYEAR=1900
DGENRE=
TTITLE0=Oh, The Night
TTITLE1=Time Here Runs Too Slow
TTITLE2=Hate Will Make Us Free
TTITLE3=Found In Traslation
TTITLE4=Inside Out
TTITLE5=My Own Personal Flight Attendant
TTITLE6=Make Sure I Breath
TTITLE7=Seven 
TTITLE8=We Can Gife Up
TTITLE9=Logical
TTITLE10=And Now I'll Close My Eyes
EXTD=
EXTT0=
EXTT1=
EXTT2=
EXTT3=
EXTT4=
EXTT5=
EXTT6=
EXTT7=
EXTT8=
EXTT9=
EXTT10=
PLAYORDER=
